<?xml version="1.0" encoding="utf-8"?>
<!-- Generator: Adobe Illustrator 21.0.0, SVG Export Plug-In . SVG Version: 6.00 Build 0)  -->
<svg version="1.1" id="Layer_1" xmlns="http://www.w3.org/2000/svg" xmlns:xlink="http://www.w3.org/1999/xlink" x="0px" y="0px"
	 viewBox="0 0 1000 1000" style="enable-background:new 0 0 1000 1000;" xml:space="preserve">
<style type="text/css">
	.st0{fill:#FFFFFF;}
</style>
<path class="st0" d="M993,1000H6V0h987V1000z M45,967h908V33H45V967z"/>
<path class="st0" d="M387,490h-56.6l-70.6-257.6h54.9v-72.8h-54.9v56.1V232v82.5v113.9V490h-61.6v-40.9V118.7V98H238h21.8h60.5h11.2
	c11.6,0,21.5,3.7,29.7,11.2c8.2,7.5,13.1,16.8,14.6,28l0.6,5.6v106.4c0,11.6-3.8,21.6-11.5,30c-7.7,8.4-16.9,13.4-27.7,14.8L387,490
	z"/>
<path class="st0" d="M572.9,98v39.2v22.4h-98.6V233h78.4v11.2v39.2v11.2h-78.4v133.8h98.6v22.4V490h-98.6h-61.6v-40.9V118.7V98h61.6
	L572.9,98L572.9,98z"/>
<path class="st0" d="M776.7,113.1c7.1,8.2,10.6,17.9,10.6,29.1v41.4v17.9h-61.6v-17.7v-24.3h-54.9v268.8h54.9v-24.9v-17.7h61.6v17.9
	v42c0,11.2-3.6,20.9-10.6,29.1c-7.1,8.2-16.1,13.3-26.9,15.1h-103c-10.8-1.9-19.8-6.9-26.9-15.1c-7.1-8.2-10.6-17.9-10.6-29.1V142.2
	c0-11.2,3.5-20.9,10.6-29.1c7.1-8.2,16-13.2,26.9-15.1h103C760.7,99.9,769.6,104.9,776.7,113.1z"/>
<path class="st0" d="M307.2,675.8l71.1,225.7h-15.1h-41.4h-8.4L268,757l-7.8,15.7v128.8h-11.2h-39.2h-11.2V720.6V682v-0.6V548.1
	v-38.6h61.6v134.4L311.7,510H380L307.2,675.8z"/>
<path class="st0" d="M551.3,509.5c10.4,1.9,19.2,7,26.3,15.4c7.1,8.4,10.6,18,10.6,28.8v42v16.8v1.1v202.2v42
	c0,10.8-3.6,20.4-10.6,28.6c-7.1,8.2-15.9,13.3-26.3,15.1H447.7c-10.5-1.9-19.2-6.9-26.3-15.1c-7.1-8.2-10.6-17.7-10.6-28.6V553.7
	c0-10.8,3.5-20.4,10.6-28.8c7.1-8.4,15.9-13.5,26.3-15.4L551.3,509.5L551.3,509.5z M526.7,612.4v-16.8v-24.6h-54.3v268.8h54.3v-24.6
	V613.5V612.4z"/>
<path class="st0" d="M803.9,509.5v392h-61.6l-56-175.3v175.3h-61.6v-392h22.4h39.2v1.1l56,184.8V509.5h22.4H803.9z"/>
</svg>
