<?xml version="1.0" encoding="iso-8859-1"?>
<!-- Generator: Adobe Illustrator 21.0.0, SVG Export Plug-In . SVG Version: 6.00 Build 0)  -->
<svg version="1.1" id="Layer_1" xmlns="http://www.w3.org/2000/svg" xmlns:xlink="http://www.w3.org/1999/xlink" x="0px" y="0px"
	 viewBox="0 0 1000 1000" style="enable-background:new 0 0 1000 1000;" xml:space="preserve">
<path style="fill:#FF585D;" d="M993,1000H6V0h987V1000z M45,967h908V33H45V967z"/>
<path style="fill:#FF585D;" d="M386.955,489.998h-56.56l-70.56-257.6h54.88v-72.801h-54.88v56.097v16.267v82.46v113.872v61.705
	h-61.6v-40.88v-330.4v-20.72h39.76h21.84h60.48h11.2c11.568,0,21.464,3.736,29.68,11.2c8.208,7.473,13.064,16.8,14.56,28l0.56,5.6
	v106.4c0,11.576-3.833,21.56-11.48,29.96c-7.656,8.399-16.896,13.353-27.72,14.84L386.955,489.998z"/>
<path style="fill:#FF585D;" d="M572.873,97.998v39.2v22.399h-98.561v73.36h78.4v11.2v39.2v11.199h-78.4v133.841h98.561v22.399v39.2
	h-98.561h-61.6v-40.88v-330.4v-20.72h61.6H572.873z"/>
<path style="fill:#FF585D;" d="M776.712,113.118c7.087,8.216,10.64,17.92,10.64,29.12v41.439v17.92h-61.6v-17.684v-24.316h-54.881
	v268.801h54.881v-24.877v-17.684h61.6v17.92v42c0,11.2-3.553,20.913-10.64,29.12c-7.097,8.217-16.057,13.257-26.881,15.12h-103.04
	c-10.832-1.863-19.792-6.903-26.88-15.12c-7.096-8.207-10.64-17.92-10.64-29.12v-303.52c0-11.2,3.544-20.904,10.64-29.12
	c7.088-8.208,16.048-13.248,26.88-15.12h103.04C760.655,99.87,769.615,104.91,776.712,113.118z"/>
<path style="fill:#FF585D;" d="M307.176,675.794l71.12,225.68h-15.12h-41.44h-8.4l-45.36-144.48l-7.84,15.681v128.8h-11.2h-39.2
	h-11.2v-180.88v-38.64v-0.561v-133.28v-38.64h61.6v134.4l51.52-133.841h68.32L307.176,675.794z"/>
<path style="fill:#FF585D;" d="M551.334,509.474c10.447,1.872,19.224,7,26.32,15.4c7.087,8.399,10.64,18.016,10.64,28.84v42v16.8
	v1.12v202.16v42c0,10.832-3.553,20.353-10.64,28.56c-7.097,8.217-15.873,13.257-26.32,15.12h-103.6
	c-10.456-1.863-19.232-6.903-26.32-15.12c-7.096-8.207-10.64-17.728-10.64-28.56v-304.08c0-10.824,3.544-20.44,10.64-28.84
	c7.087-8.4,15.864-13.528,26.32-15.4H551.334z M526.694,612.426v-16.765v-24.588h-54.32v268.801h54.32v-24.588v-201.74V612.426z"/>
<path style="fill:#FF585D;" d="M803.888,509.474v392h-61.601l-56-175.28v175.28h-61.6v-392h22.4h39.199v1.12l56,184.8v-185.92h22.4
	H803.888z"/>
</svg>
